<svg width="61" height="14" viewBox="0 0 61 14" fill="none" xmlns="http://www.w3.org/2000/svg">
<path d="M0.484375 13V11.6328L1.69531 11.3984V3.23438L0.484375 3V1.625H9.53906V4.74219H7.78906L7.6875 3.38281H3.97656V6.51562H7.96094V8.27344H3.97656V11.3984L5.19531 11.6328V13H0.484375ZM12.9922 13.1641C12.1536 13.1641 11.487 12.9401 10.9922 12.4922C10.4974 12.0391 10.25 11.4245 10.25 10.6484C10.25 9.85677 10.5703 9.21094 11.2109 8.71094C11.8568 8.21094 12.8047 7.96094 14.0547 7.96094H15.1719V7.33594C15.1719 6.92969 15.0521 6.60156 14.8125 6.35156C14.5781 6.09635 14.224 5.96875 13.75 5.96875C13.5052 5.96875 13.2839 6 13.0859 6.0625C12.8932 6.11979 12.7188 6.20312 12.5625 6.3125L12.3828 7.42969H10.7422L10.7109 5.23438C11.1536 4.98438 11.6328 4.78125 12.1484 4.625C12.6641 4.46875 13.2396 4.39062 13.875 4.39062C14.9792 4.39062 15.8516 4.64844 16.4922 5.16406C17.1328 5.67969 17.4531 6.41146 17.4531 7.35938V10.8438C17.4531 10.9583 17.4531 11.0703 17.4531 11.1797C17.4583 11.2891 17.4688 11.3984 17.4844 11.5078L18.3672 11.6328V13H15.5391C15.4818 12.8542 15.4245 12.6979 15.3672 12.5312C15.3099 12.3646 15.2682 12.1979 15.2422 12.0312C14.9714 12.375 14.651 12.651 14.2812 12.8594C13.9167 13.0625 13.487 13.1641 12.9922 13.1641ZM13.6016 11.4766C13.9193 11.4766 14.2188 11.4062 14.5 11.2656C14.7865 11.1198 15.0104 10.9297 15.1719 10.6953V9.35938H14.0469C13.5469 9.35938 13.1667 9.47396 12.9062 9.70312C12.651 9.93229 12.5234 10.2083 12.5234 10.5312C12.5234 10.8333 12.6172 11.0677 12.8047 11.2344C12.9974 11.3958 13.263 11.4766 13.6016 11.4766ZM21.9688 13L19.4141 6.0625L18.5 5.92188V4.54688H22.6016V5.91406L21.7109 6.07031L22.9844 9.90625L23.1797 10.5625H23.2266L23.4453 9.90625L24.8438 6.07812L23.8047 5.91406V4.54688H27.8984V5.92188L26.9609 6.07812L24.2891 13H21.9688ZM28.5 13V11.6328L29.6016 11.3984V6.15625L28.3828 5.92188V4.54688H31.8828V11.3984L32.9766 11.6328V13H28.5ZM29.5234 2.75781V0.8125H31.8828V2.75781H29.5234ZM37.7188 13.1641C36.9062 13.1641 36.2031 12.9818 35.6094 12.6172C35.0208 12.2526 34.5677 11.75 34.25 11.1094C33.9323 10.4688 33.7734 9.73177 33.7734 8.89844V8.66406C33.7734 7.83594 33.9349 7.10156 34.2578 6.46094C34.5807 5.8151 35.0365 5.3099 35.625 4.94531C36.2135 4.57552 36.9062 4.39062 37.7031 4.39062C38.4583 4.39062 39.112 4.51042 39.6641 4.75C40.2161 4.98438 40.6641 5.25781 41.0078 5.57031L40.9922 7.99219H39.2734L38.9688 6.48438C38.8438 6.35938 38.6849 6.25781 38.4922 6.17969C38.2995 6.10156 38.1042 6.0625 37.9062 6.0625C37.2812 6.0625 36.8151 6.29427 36.5078 6.75781C36.2057 7.21615 36.0547 7.85156 36.0547 8.66406V8.89844C36.0547 9.76823 36.2188 10.4062 36.5469 10.8125C36.875 11.2135 37.2708 11.4141 37.7344 11.4141C38.1354 11.4141 38.4557 11.3099 38.6953 11.1016C38.9401 10.888 39.1094 10.5885 39.2031 10.2031H41.1484L41.1719 10.25C41.0365 11.151 40.7031 11.862 40.1719 12.3828C39.6406 12.9036 38.8229 13.1641 37.7188 13.1641ZM46.2266 13.1641C45.388 13.1641 44.6693 12.9818 44.0703 12.6172C43.4766 12.2526 43.0208 11.7474 42.7031 11.1016C42.3854 10.4505 42.2266 9.70312 42.2266 8.85938V8.69531C42.2266 7.85677 42.3854 7.11458 42.7031 6.46875C43.0208 5.81771 43.4766 5.3099 44.0703 4.94531C44.6693 4.57552 45.3828 4.39062 46.2109 4.39062C47.0443 4.39062 47.7578 4.57292 48.3516 4.9375C48.9505 5.30208 49.4089 5.8099 49.7266 6.46094C50.0443 7.10677 50.2031 7.85156 50.2031 8.69531V8.85938C50.2031 9.70312 50.0443 10.4505 49.7266 11.1016C49.4089 11.7474 48.9531 12.2526 48.3594 12.6172C47.7656 12.9818 47.0547 13.1641 46.2266 13.1641ZM46.2266 11.4141C46.8151 11.4141 47.2448 11.1797 47.5156 10.7109C47.7917 10.2422 47.9297 9.625 47.9297 8.85938V8.69531C47.9297 7.94531 47.7917 7.33333 47.5156 6.85938C47.2396 6.38542 46.8047 6.14844 46.2109 6.14844C45.6172 6.14844 45.1849 6.38542 44.9141 6.85938C44.6432 7.33333 44.5078 7.94531 44.5078 8.69531V8.85938C44.5078 9.63021 44.6432 10.25 44.9141 10.7188C45.1849 11.1823 45.6224 11.4141 46.2266 11.4141ZM51.1406 13V11.6328L52.2344 11.3984V6.15625L51.0234 5.92188V4.54688H54.3594L54.4609 5.75781C54.7422 5.32552 55.0885 4.98958 55.5 4.75C55.9167 4.51042 56.3906 4.39062 56.9219 4.39062C57.7552 4.39062 58.4089 4.65885 58.8828 5.19531C59.362 5.73177 59.6016 6.57292 59.6016 7.71875V11.3984L60.6953 11.6328V13H56.3359V11.6328L57.3125 11.3984V7.72656C57.3125 7.15885 57.1979 6.75781 56.9688 6.52344C56.7448 6.28385 56.4141 6.16406 55.9766 6.16406C55.3411 6.16406 54.8542 6.42969 54.5156 6.96094V11.3984L55.4375 11.6328V13H51.1406Z" fill="white"/>
</svg>
